<svg xmlns="http://www.w3.org/2000/svg" width="86" height="117" viewBox="0 0 86 117"><g fill="#363636"><path d="M82.82 4.01H3.33C1.57 4.01.142 5.44.142 7.2V53.61c0 1.763 1.427 3.19 3.188 3.19h79.492c1.762 0 3.19-1.428 3.19-3.19V7.2c0-1.762-1.43-3.19-3.19-3.19zM8.393 37.237h-.226c-1.762 0-3.19-1.43-3.19-3.19v-7.282c0-1.76 1.428-3.188 3.19-3.188h.226v13.66zm61.23 15.172h-56.28V8.402h56.28v44.006zM78.4 34.552c-2.29 0-4.146-1.855-4.146-4.147s1.856-4.147 4.146-4.147 4.148 1.855 4.148 4.147-1.857 4.147-4.148 4.147zM31.497 0h23.157v2.758H31.497zM46.608 64.86V61.89h8.046V59.13H31.498v2.758h8.045v35.246c-2.14.938-3.635 3.072-3.635 5.56V117h14.335v-14.307c0-2.486-1.495-4.62-3.636-5.557v-27.99h4.796l5.05 1.213v-6.712l-5.05 1.213h-4.795z"/></g></svg>