<svg version="1" xmlns="http://www.w3.org/2000/svg" width="656" height="144" viewBox="0 0 492.000000 108.000000"><path d="M366.3 3.2c-14.5 1-21.4 4-31.7 13.8-9.7 9.3-14.1 18.1-15.4 30.8-2 19.4 2.7 33.1 15.4 45.2 11 10.4 19.8 13.8 36 14 10.8 0 22.4-2.6 25.6-5.8.7-.7 1.7-1.2 2.4-1.2.6 0 4.3-2.9 8-6.4 8.4-7.8 8.2-8.7-3.1-14.6-1.1-.6-3.1-1.7-4.5-2.5-3.7-2.2-5.3-1.8-8.6 1.6-1.6 1.7-4.2 3.7-5.8 4.6-6.9 3.6-17.7 5.5-19.1 3.3-.3-.5-1.8-1-3.3-1-2.7 0-9.8-4.1-13-7.6-4.5-4.8-8.2-14.9-8.2-22.4 0-7.5 3.7-17.6 8.2-22.4 3.2-3.5 10.3-7.6 13-7.6 1.5 0 3-.5 3.3-1 1.6-2.6 14.1.2 20.7 4.5 2.1 1.4 4.5 3.6 5.4 5 1.9 2.9 3.8 3.1 7.9.4 1.7-1 3.7-2.2 4.5-2.6 4.2-1.9 9-5.5 9-6.7 0-2-10.5-12.1-15.5-14.9-3.7-2.1-10.3-4.6-17.5-6.5-1.4-.4-7.6-.4-13.7 0zM2 55v51.1l25.3-.4c27.1-.4 30.3-.9 39-6 5.7-3.4 15.6-13.3 17.8-17.9 3.9-8.1 4.8-10.7 5.8-16.2 1.4-7.5 1.4-13.7 0-21.2-1-5.5-1.9-8.1-5.8-16.2-2.2-4.6-12.1-14.5-17.8-17.9-8.7-5.1-11.9-5.6-39-6L2 3.9V55zm48.8-28.2c6.4 2.1 12.4 7.7 15.3 14.1 2.9 6.5 2.9 21.7 0 28.2C61 80.5 51.5 85.3 35 84.8l-9.5-.3-.3-28.5c-.1-15.7 0-29 .3-29.7.7-2 18.8-1.7 25.3.5zM104 55v51l31.3-.2 31.2-.3v-20L147 85l-19.5-.5v-20L145 64l17.5-.5v-20L145 43l-17.5-.5v-17l19.3-.3c11.6-.1 19.2-.6 19.3-1.2v-9.5V5C166 4.4 155 4 135 4h-31v51zM176.6 4.9c-.3.5.1 2.2.9 3.7.8 1.6 1.5 3.7 1.5 4.6 0 1 .6 3.2 1.4 5 .8 1.8 2.9 8 4.6 13.8 1.8 5.8 3.8 12.1 4.5 14 1.2 3.2 5.2 15.9 13.8 43 1.6 5.2 3.7 11.2 4.5 13.2l1.5 3.8h14.4c12.8 0 14.4-.2 14.9-1.8.3-.9 1.1-3.3 1.8-5.2.7-1.9 2.7-7.8 4.3-13 8.5-27 12.6-39.8 13.8-43 .7-1.9 3.4-10.3 6-18.5 2.6-8.3 5.1-15.8 5.7-16.9.6-1.1.6-2.2 0-2.8-.5-.5-6.2-.7-12.7-.6l-11.8.3-1.9 7c-1.1 3.8-2.6 8.5-3.4 10.3-.8 1.8-1.4 4-1.4 5 0 .9-.6 3.4-1.4 5.7-.8 2.2-2.2 6.7-3.1 10-1 3.3-2.3 7.8-3 10-.6 2.2-2 6.7-3 10-2.3 8-4.6 13.5-5.6 13.5-.5 0-1.1-1.2-1.4-2.8-.3-1.5-1.2-4.7-1.9-7.2-.8-2.5-2.1-7.2-3.1-10.5s-2.3-7.8-3-10c-.7-2.2-2-6.7-3-10s-2.3-7.8-3-10c-.7-2.2-2.3-7.6-3.5-12-1.3-4.4-2.8-8.3-3.4-8.7-1.6-1.1-23.4-1-24 .1zM281 55v51.1l11.3-.3 11.2-.3V4.5l-11.2-.3-11.3-.3V55zM428 55v51h64V85l-20.2-.2-20.3-.3v-20L469 64l17.5-.5v-20L469 43l-17.5-.5v-17l20.3-.3L492 25V4h-64v51z"/></svg>